<svg width="1000" height="84" viewBox="0 0 1000 84" fill="none" xmlns="http://www.w3.org/2000/svg">
<line x1="1000" y1="43" y2="43" stroke="#078C00" stroke-width="2"/>
<path d="M971.058 44.1658C971.597 44.6865 971.923 45.5205 971.913 46.7456C971.903 47.9745 971.552 49.5021 970.846 51.241C969.437 54.7133 966.69 58.8345 962.916 62.7425C959.142 66.6504 955.119 69.5391 951.698 71.0692C949.985 71.8353 948.471 72.2387 947.244 72.2913C946.019 72.3437 945.174 72.048 944.635 71.5274C944.096 71.0067 943.77 70.1719 943.78 68.9462C943.79 67.7174 944.14 66.1903 944.846 64.4516C946.256 60.9793 949.002 56.8581 952.776 52.9501C956.55 49.0421 960.573 46.1535 963.994 44.6234C965.707 43.8571 967.221 43.4531 968.449 43.4005C969.673 43.3482 970.519 43.6451 971.058 44.1658Z" fill="white" stroke="#078C00" stroke-width="2"/>
<path d="M973.964 43.438C974.677 43.2066 975.566 43.3105 976.643 43.8941C977.724 44.4796 978.908 45.5067 980.112 46.9463C982.516 49.8213 984.865 54.181 986.544 59.3479C988.223 64.5147 988.885 69.4228 988.63 73.1617C988.502 75.0339 988.147 76.56 987.617 77.6687C987.089 78.7744 986.431 79.3818 985.718 79.6135C985.005 79.8451 984.115 79.7407 983.037 79.1568C981.957 78.5713 980.773 77.5451 979.569 76.1055C977.165 73.2306 974.816 68.8708 973.137 63.704C971.458 58.5371 970.796 53.6291 971.052 49.8901C971.179 48.0178 971.533 46.4909 972.063 45.3822C972.592 44.2766 973.251 43.6697 973.964 43.438Z" fill="white" stroke="#078C00" stroke-width="2"/>
<path d="M929.292 43.6577C929.891 44.1088 930.316 44.8969 930.455 46.1141C930.596 47.3349 930.433 48.894 929.945 50.7059C928.968 54.3242 926.745 58.7493 923.475 63.0881C920.206 67.4269 916.565 70.7843 913.356 72.7199C911.749 73.6891 910.295 74.274 909.083 74.4758C907.874 74.677 907 74.4865 906.401 74.0355C905.802 73.5844 905.377 72.7955 905.238 71.5778C905.097 70.357 905.259 68.7986 905.748 66.9867C906.724 63.3685 908.948 58.9433 912.217 54.6045C915.487 50.2658 919.127 46.9084 922.336 44.9728C923.943 44.0035 925.397 43.4179 926.61 43.2161C927.818 43.0149 928.694 43.2066 929.292 43.6577Z" fill="white" stroke="#078C00" stroke-width="2"/>
<path d="M992.756 42.4331C992.202 42.8655 991.314 43.0465 989.978 42.7529C988.651 42.461 987.029 41.7271 985.215 40.5617C981.595 38.2361 977.393 34.3154 973.504 29.3378C969.615 24.3602 966.828 19.3352 965.447 15.2599C964.755 13.2176 964.435 11.4671 964.473 10.1082C964.512 8.7412 964.902 7.92291 965.456 7.49048C966.009 7.05826 966.897 6.87766 968.233 7.1712C969.56 7.46311 971.181 8.19702 972.996 9.36245C976.616 11.688 980.817 15.6082 984.706 20.5856C988.595 25.5633 991.383 30.5888 992.764 34.6642C993.455 36.7066 993.775 38.457 993.737 39.8159C993.699 41.1826 993.309 42.0006 992.756 42.4331Z" fill="white" stroke="#078C00" stroke-width="2"/>
<path d="M915.357 42.946C914.819 43.3975 913.938 43.6094 912.592 43.3626C911.255 43.1172 909.61 42.4403 907.756 41.3389C904.057 39.1411 899.72 35.3695 895.66 30.5306C891.6 25.6918 888.639 20.7671 887.117 16.7425C886.354 14.7255 885.973 12.9873 885.964 11.6279C885.954 10.2604 886.316 9.42895 886.854 8.97747C887.392 8.5262 888.274 8.31472 889.618 8.56147C890.955 8.80687 892.601 9.48376 894.455 10.5852C898.154 12.7829 902.49 16.5541 906.55 21.3928C910.61 26.2317 913.572 31.1569 915.094 35.1816C915.857 37.1986 916.237 38.9368 916.247 40.2962C916.256 41.6634 915.895 42.4945 915.357 42.946Z" fill="white" stroke="#078C00" stroke-width="2"/>
<path d="M918.216 42.7935C917.64 42.3906 917.207 41.5938 917.098 40.2307C916.989 38.8757 917.216 37.1109 917.8 35.0351C918.966 30.893 921.487 25.7285 925.11 20.5541C928.733 15.38 932.724 11.2453 936.217 8.73346C937.968 7.47468 939.548 6.65693 940.859 6.29593C942.177 5.93282 943.074 6.06713 943.65 6.47C944.225 6.87296 944.657 7.66936 944.767 9.03218C944.876 10.3872 944.648 12.152 944.064 14.2278C942.898 18.3698 940.378 23.5338 936.755 28.708C933.132 33.8824 929.141 38.0176 925.647 40.5295C923.896 41.7883 922.316 42.606 921.005 42.967C919.687 43.33 918.791 43.1961 918.216 42.7935Z" fill="white" stroke="#078C00" stroke-width="2"/>
<path d="M875.538 43.3671C875.016 43.746 874.264 43.9104 873.226 43.7379C872.184 43.5645 870.936 43.0609 869.557 42.2199C866.805 40.5404 863.707 37.6219 860.962 33.8433C858.216 30.0648 856.398 26.2169 855.651 23.08C855.277 21.5093 855.184 20.1663 855.341 19.1213C855.498 18.0812 855.886 17.4158 856.408 17.0369C856.929 16.6581 857.681 16.4949 858.719 16.6674C859.761 16.8408 861.01 17.3444 862.388 18.1854C865.141 19.865 868.238 22.7834 870.984 26.562C873.729 30.3407 875.547 34.1884 876.294 37.3253C876.668 38.896 876.761 40.239 876.604 41.284C876.447 42.3237 876.059 42.9881 875.538 43.3671Z" fill="white" stroke="#078C00" stroke-width="2"/>
<path d="M857.102 73.9831C856.496 73.7626 855.939 73.2307 855.502 72.2742C855.063 71.313 854.783 69.9964 854.709 68.3835C854.562 65.1623 855.25 60.9623 856.847 56.5734C858.444 52.1845 860.618 48.5253 862.801 46.152C863.894 44.9637 864.955 44.1355 865.909 43.6815C866.859 43.2296 867.628 43.1794 868.234 43.3999C868.839 43.6205 869.395 44.1528 869.832 45.1094C870.271 46.0705 870.552 47.3871 870.626 49.0001C870.772 52.2213 870.085 56.4213 868.488 60.8102C866.89 65.1992 864.717 68.8583 862.534 71.2315C861.441 72.4198 860.38 73.2481 859.425 73.7021C858.476 74.1537 857.708 74.2034 857.102 73.9831Z" fill="white" stroke="#078C00" stroke-width="2"/>
<path d="M891.322 69.863C890.814 70.2598 890.068 70.4504 889.025 70.3142C887.977 70.1773 886.712 69.7175 885.305 68.9252C882.495 67.3428 879.298 64.5342 876.422 60.8537C873.547 57.1733 871.595 53.3912 870.739 50.2823C870.311 48.7255 870.171 47.3867 870.292 46.3368C870.412 45.2918 870.776 44.6134 871.284 44.2164C871.793 43.8197 872.539 43.6303 873.581 43.7666C874.629 43.9034 875.894 44.3632 877.301 45.1556C880.111 46.7381 883.308 49.5466 886.184 53.2271C889.059 56.9076 891.011 60.6895 891.867 63.7985C892.295 65.3552 892.435 66.6941 892.315 67.7439C892.194 68.7884 891.83 69.4661 891.322 69.863Z" fill="white" stroke="#078C00" stroke-width="2"/>
<path d="M830.555 72.827C829.991 73.1396 829.225 73.211 828.216 72.9134C827.202 72.6143 826.025 71.9622 824.759 70.9596C822.232 68.9571 819.513 65.6829 817.249 61.5979C814.984 57.5129 813.648 53.4721 813.289 50.2676C813.11 48.663 813.181 47.3187 813.464 46.3007C813.746 45.2874 814.213 44.6743 814.777 44.3617C815.341 44.0493 816.107 43.979 817.116 44.2767C818.129 44.5758 819.307 45.2278 820.572 46.2305C823.1 48.2331 825.819 51.5072 828.083 55.5922C830.347 59.6773 831.683 63.7179 832.042 66.9225C832.222 68.527 832.151 69.8714 831.867 70.8894C831.585 71.9022 831.119 72.5145 830.555 72.827Z" fill="white" stroke="#078C00" stroke-width="2"/>
<path d="M813.59 43.7255C814.096 44.1973 814.414 44.9846 814.401 46.1888C814.389 47.3938 814.043 48.9065 813.347 50.6415C811.957 54.105 809.255 58.2541 805.547 62.2303C801.84 66.2065 797.889 69.1913 794.531 70.8194C792.849 71.635 791.364 72.0857 790.163 72.1818C788.962 72.2779 788.155 72.0157 787.649 71.5441C787.143 71.0724 786.824 70.2845 786.836 69.0802C786.849 67.8753 787.195 66.3629 787.892 64.6281C789.282 61.1646 791.983 57.0155 795.691 53.0393C799.399 49.0631 803.35 46.0784 806.708 44.4502C808.39 43.6348 809.874 43.1834 811.075 43.0871C812.276 42.9911 813.084 43.2538 813.59 43.7255Z" fill="white" stroke="#078C00" stroke-width="2"/>
<path d="M741.011 44.2224C741.64 44.6306 742.119 45.3871 742.343 46.5916C742.568 47.7997 742.515 49.3663 742.154 51.2079C741.432 54.8854 739.523 59.4549 736.564 64.0112C733.605 68.5674 730.207 72.1706 727.141 74.3254C725.606 75.4043 724.197 76.0892 723.001 76.375C721.81 76.6601 720.924 76.5311 720.295 76.123C719.666 75.7147 719.187 74.9574 718.963 73.7524C718.738 72.5443 718.79 70.9784 719.152 69.1369C719.873 65.4594 721.783 60.8898 724.741 56.3336C727.7 51.7773 731.098 48.1742 734.164 46.0194C735.7 44.9404 737.109 44.2548 738.304 43.9689C739.496 43.6839 740.383 43.8141 741.011 44.2224Z" fill="white" stroke="#078C00" stroke-width="2"/>
<path d="M835.756 42.4331C835.202 42.8655 834.314 43.0465 832.978 42.7529C831.651 42.461 830.029 41.7271 828.215 40.5617C824.595 38.2361 820.393 34.3154 816.504 29.3378C812.615 24.3602 809.828 19.3352 808.447 15.2599C807.755 13.2176 807.435 11.4671 807.473 10.1082C807.512 8.7412 807.902 7.92291 808.456 7.49048C809.009 7.05826 809.897 6.87766 811.233 7.1712C812.56 7.46311 814.181 8.19702 815.996 9.36245C819.616 11.688 823.817 15.6082 827.706 20.5856C831.595 25.5633 834.383 30.5888 835.764 34.6642C836.455 36.7066 836.775 38.457 836.737 39.8159C836.699 41.1826 836.309 42.0006 835.756 42.4331Z" fill="white" stroke="#078C00" stroke-width="2"/>
<path d="M758.844 41.9157C758.315 42.3748 757.437 42.6006 756.082 42.3719C754.735 42.1447 753.071 41.4889 751.189 40.41C747.434 38.257 743.008 34.5342 738.837 29.7361C734.666 24.9378 731.595 20.0367 729.986 16.0183C729.179 14.0045 728.761 12.2653 728.724 10.9004C728.686 9.52636 729.032 8.6878 729.56 8.2287C730.088 7.76981 730.966 7.54455 732.321 7.77318C733.668 8.00038 735.332 8.65613 737.214 9.73509C740.969 11.8881 745.395 15.6114 749.566 20.4097C753.737 25.2079 756.808 30.1085 758.417 34.1268C759.224 36.1406 759.641 37.8797 759.679 39.2447C759.717 40.6184 759.372 41.4566 758.844 41.9157Z" fill="white" stroke="#078C00" stroke-width="2"/>
<path d="M760.837 41.3386C760.276 40.9159 759.871 40.1045 759.809 38.7384C759.747 37.3804 760.036 35.6246 760.693 33.5705C762.002 29.4716 764.701 24.3982 768.503 19.3534C772.304 14.3089 776.437 10.3159 780.016 7.9276C781.81 6.73068 783.418 5.96859 784.74 5.65355C786.07 5.33668 786.962 5.5022 787.523 5.92491C788.084 6.34769 788.488 7.1587 788.55 8.52451C788.612 9.88255 788.322 11.6383 787.666 13.6924C786.357 17.7912 783.658 22.8641 779.856 27.9087C776.055 32.9535 771.922 36.947 768.343 39.3354C766.549 40.5323 764.941 41.2944 763.619 41.6094C762.289 41.9262 761.398 41.7611 760.837 41.3386Z" fill="white" stroke="#078C00" stroke-width="2"/>
<path d="M720.461 42.0984C719.999 42.5443 719.277 42.8103 718.221 42.7797C717.159 42.7489 715.846 42.4177 714.355 41.7681C711.377 40.4707 707.88 37.9872 704.609 34.6004C701.339 31.2136 698.979 27.6316 697.786 24.6107C697.189 23.098 696.904 21.7737 696.91 20.712C696.916 19.6549 697.207 18.9424 697.669 18.4965C698.131 18.0508 698.853 17.7846 699.91 17.8153C700.971 17.8461 702.284 18.178 703.775 18.8275C706.752 20.1249 710.25 22.6084 713.52 25.9952C716.791 29.382 719.151 32.9641 720.343 35.9849C720.941 37.4975 721.226 38.8213 721.22 39.883C721.214 40.94 720.923 41.6525 720.461 42.0984Z" fill="white" stroke="#078C00" stroke-width="2"/>
<path d="M773.288 72.5422C772.711 72.8236 771.942 72.8533 770.946 72.4977C769.946 72.1405 768.799 71.4196 767.582 70.3411C765.151 68.1871 762.593 64.7444 760.529 60.5127C758.465 56.281 757.327 52.145 757.126 48.9034C757.026 47.2802 757.164 45.9326 757.498 44.9248C757.831 43.9214 758.328 43.3337 758.904 43.0523C759.481 42.771 760.251 42.7411 761.246 43.0968C762.246 43.4541 763.392 44.1754 764.609 45.2539C767.04 47.4078 769.599 50.8506 771.663 55.0823C773.727 59.314 774.864 63.45 775.065 66.6915C775.165 68.3146 775.028 69.662 774.694 70.6698C774.362 71.6731 773.864 72.2608 773.288 72.5422Z" fill="white" stroke="#078C00" stroke-width="2"/>
<path d="M666.259 44.1658C666.798 44.6865 667.123 45.5205 667.114 46.7456C667.104 47.9745 666.753 49.5021 666.047 51.241C664.637 54.7133 661.891 58.8345 658.117 62.7425C654.343 66.6504 650.32 69.5391 646.899 71.0692C645.186 71.8353 643.672 72.2387 642.444 72.2913C641.22 72.3437 640.375 72.048 639.836 71.5274C639.296 71.0067 638.971 70.1719 638.981 68.9462C638.99 67.7174 639.341 66.1903 640.046 64.4516C641.456 60.9793 644.203 56.8581 647.977 52.9501C651.751 49.0421 655.773 46.1535 659.194 44.6234C660.908 43.8571 662.422 43.4531 663.65 43.4005C664.874 43.3482 665.719 43.6451 666.259 44.1658Z" fill="white" stroke="#078C00" stroke-width="2"/>
<path d="M669.649 43.5434C670.358 43.2995 671.249 43.3879 672.336 43.9526C673.426 44.5191 674.628 45.5254 675.857 46.9438C678.311 49.7764 680.736 54.0944 682.505 59.2312C684.274 64.3679 685.021 69.2637 684.831 73.0065C684.736 74.8807 684.408 76.4128 683.898 77.5305C683.389 78.6452 682.741 79.264 682.033 79.5082C681.324 79.7522 680.432 79.6634 679.345 79.0983C678.254 78.5318 677.053 77.5264 675.824 76.108C673.37 73.2755 670.945 68.9574 669.176 63.8206C667.407 58.6839 666.66 53.7881 666.85 50.0453C666.945 48.171 667.272 46.6382 667.783 45.5204C668.292 44.4057 668.94 43.7874 669.649 43.5434Z" fill="white" stroke="#078C00" stroke-width="2"/>
<path d="M624.493 43.6577C625.091 44.1088 625.516 44.8969 625.656 46.1141C625.796 47.335 625.634 48.894 625.145 50.7059C624.169 54.3242 621.945 58.7494 618.676 63.0881C615.406 67.4269 611.766 70.7843 608.557 72.7199C606.95 73.6891 605.496 74.274 604.284 74.4758C603.075 74.677 602.2 74.4865 601.602 74.0355C601.003 73.5844 600.578 72.7955 600.438 71.5778C600.298 70.357 600.46 68.7986 600.948 66.9868C601.925 63.3685 604.148 58.9433 607.418 54.6045C610.687 50.2658 614.328 46.9084 617.537 44.9728C619.144 44.0035 620.598 43.4179 621.81 43.2161C623.019 43.0149 623.894 43.2067 624.493 43.6577Z" fill="white" stroke="#078C00" stroke-width="2"/>
<path d="M687.957 42.4331C687.403 42.8655 686.515 43.0465 685.179 42.7529C683.851 42.461 682.23 41.7271 680.416 40.5617C676.795 38.2361 672.594 34.3154 668.705 29.3378C664.816 24.3602 662.029 19.3352 660.648 15.2599C659.956 13.2176 659.636 11.4671 659.674 10.1082C659.712 8.7412 660.103 7.92291 660.656 7.49048C661.21 7.05826 662.098 6.87766 663.433 7.1712C664.761 7.46311 666.382 8.19702 668.196 9.36245C671.817 11.688 676.018 15.6082 679.907 20.5856C683.796 25.5633 686.584 30.5888 687.964 34.6642C688.656 36.7066 688.976 38.457 688.938 39.8159C688.9 41.1826 688.51 42.0006 687.957 42.4331Z" fill="white" stroke="#078C00" stroke-width="2"/>
<path d="M610.558 42.946C610.02 43.3975 609.138 43.6094 607.793 43.3626C606.456 43.1172 604.81 42.4403 602.957 41.3389C599.257 39.1411 594.921 35.3695 590.861 30.5306C586.801 25.6918 583.84 20.7671 582.318 16.7425C581.555 14.7255 581.174 12.9873 581.165 11.6279C581.155 10.2604 581.517 9.42895 582.055 8.97747C582.593 8.5262 583.474 8.31472 584.819 8.56147C586.156 8.80687 587.802 9.48376 589.656 10.5852C593.355 12.7829 597.691 16.5541 601.751 21.3928C605.811 26.2317 608.772 31.1569 610.295 35.1816C611.057 37.1986 611.438 38.9368 611.448 40.2962C611.457 41.6634 611.096 42.4945 610.558 42.946Z" fill="white" stroke="#078C00" stroke-width="2"/>
<path d="M613.416 42.7935C612.841 42.3906 612.408 41.5938 612.298 40.2308C612.189 38.8757 612.417 37.1109 613.001 35.0351C614.167 30.8931 616.688 25.7285 620.311 20.5541C623.934 15.38 627.924 11.2453 631.418 8.73347C633.169 7.47469 634.749 6.65695 636.06 6.29594C637.378 5.93284 638.275 6.06715 638.85 6.47002C639.425 6.87297 639.858 7.66938 639.967 9.0322C640.076 10.3873 639.849 12.152 639.265 14.2278C638.099 18.3698 635.579 23.5338 631.956 28.708C628.332 33.8824 624.342 38.0176 620.848 40.5295C619.097 41.7883 617.517 42.606 616.206 42.967C614.888 43.33 613.992 43.1961 613.416 42.7935Z" fill="white" stroke="#078C00" stroke-width="2"/>
<path d="M570.738 43.3671C570.217 43.746 569.464 43.9104 568.427 43.7379C567.385 43.5645 566.136 43.0609 564.758 42.2199C562.005 40.5404 558.908 37.6219 556.162 33.8433C553.417 30.0648 551.599 26.2169 550.852 23.08C550.478 21.5093 550.385 20.1663 550.542 19.1213C550.699 18.0812 551.087 17.4158 551.608 17.0369C552.13 16.6581 552.882 16.4949 553.92 16.6674C554.962 16.8408 556.21 17.3444 557.589 18.1854C560.341 19.865 563.439 22.7834 566.184 26.562C568.93 30.3407 570.748 34.1884 571.495 37.3253C571.869 38.896 571.962 40.239 571.805 41.284C571.648 42.3237 571.26 42.9881 570.738 43.3671Z" fill="white" stroke="#078C00" stroke-width="2"/>
<path d="M552.303 73.9831C551.697 73.7626 551.14 73.2307 550.703 72.2742C550.264 71.313 549.983 69.9964 549.91 68.3835C549.763 65.1623 550.45 60.9623 552.048 56.5734C553.645 52.1845 555.818 48.5253 558.001 46.152C559.094 44.9637 560.156 44.1355 561.11 43.6815C562.06 43.2296 562.828 43.1794 563.434 43.3999C564.04 43.6205 564.596 44.1528 565.033 45.1094C565.472 46.0705 565.753 47.3871 565.826 49.0001C565.973 52.2213 565.286 56.4213 563.688 60.8102C562.091 65.1992 559.918 68.8583 557.735 71.2315C556.642 72.4198 555.58 73.2481 554.626 73.7021C553.677 74.1537 552.909 74.2034 552.303 73.9831Z" fill="white" stroke="#078C00" stroke-width="2"/>
<path d="M586.522 69.863C586.014 70.2598 585.268 70.4504 584.225 70.3142C583.178 70.1773 581.912 69.7175 580.505 68.9252C577.696 67.3428 574.498 64.5342 571.623 60.8537C568.747 57.1733 566.796 53.3912 565.94 50.2823C565.512 48.7255 565.372 47.3867 565.492 46.3368C565.612 45.2918 565.977 44.6134 566.485 44.2164C566.993 43.8197 567.739 43.6303 568.782 43.7666C569.83 43.9034 571.095 44.3632 572.502 45.1556C575.311 46.7381 578.509 49.5466 581.385 53.2271C584.26 56.9076 586.212 60.6895 587.067 63.7985C587.496 65.3552 587.636 66.6941 587.515 67.7439C587.395 68.7884 587.03 69.4661 586.522 69.863Z" fill="white" stroke="#078C00" stroke-width="2"/>
<path d="M525.756 72.827C525.192 73.1396 524.425 73.211 523.417 72.9134C522.403 72.6143 521.225 71.9622 519.96 70.9596C517.432 68.9571 514.714 65.6829 512.449 61.5979C510.185 57.5129 508.849 53.4721 508.49 50.2676C508.31 48.663 508.382 47.3187 508.665 46.3007C508.947 45.2874 509.414 44.6743 509.977 44.3617C510.541 44.0493 511.308 43.979 512.316 44.2767C513.33 44.5758 514.508 45.2278 515.773 46.2305C518.301 48.2331 521.019 51.5072 523.284 55.5922C525.548 59.6773 526.884 63.7179 527.243 66.9225C527.423 68.527 527.351 69.8714 527.068 70.8894C526.786 71.9022 526.32 72.5145 525.756 72.827Z" fill="white" stroke="#078C00" stroke-width="2"/>
<path d="M508.791 43.7255C509.296 44.1973 509.614 44.9846 509.602 46.1888C509.59 47.3938 509.244 48.9065 508.548 50.6415C507.158 54.105 504.456 58.2541 500.748 62.2303C497.04 66.2065 493.09 69.1913 489.732 70.8194C488.049 71.635 486.564 72.0857 485.363 72.1818C484.163 72.2779 483.355 72.0157 482.849 71.5441C482.344 71.0724 482.025 70.2845 482.037 69.0802C482.049 67.8753 482.396 66.3629 483.092 64.6281C484.482 61.1646 487.184 57.0155 490.892 53.0393C494.6 49.0631 498.55 46.0784 501.908 44.4502C503.59 43.6348 505.075 43.1834 506.276 43.0871C507.477 42.9911 508.285 43.2538 508.791 43.7255Z" fill="white" stroke="#078C00" stroke-width="2"/>
<path d="M436.212 44.2224C436.84 44.6306 437.319 45.3872 437.544 46.5916C437.769 47.7997 437.716 49.3663 437.354 51.2079C436.633 54.8854 434.723 59.4549 431.765 64.0112C428.806 68.5675 425.408 72.1706 422.342 74.3254C420.806 75.4043 419.397 76.0892 418.202 76.3751C417.01 76.6601 416.124 76.5311 415.496 76.123C414.867 75.7147 414.388 74.9574 414.164 73.7524C413.939 72.5443 413.991 70.9784 414.352 69.1369C415.074 65.4594 416.983 60.8899 419.942 56.3336C422.901 51.7773 426.299 48.1742 429.365 46.0194C430.9 44.9404 432.31 44.2548 433.505 43.9689C434.697 43.6839 435.583 43.8141 436.212 44.2224Z" fill="white" stroke="#078C00" stroke-width="2"/>
<path d="M530.957 42.4331C530.403 42.8655 529.515 43.0465 528.179 42.7529C526.851 42.461 525.23 41.7271 523.416 40.5617C519.795 38.2361 515.594 34.3154 511.705 29.3378C507.816 24.3602 505.029 19.3352 503.648 15.2599C502.956 13.2176 502.636 11.4671 502.674 10.1082C502.712 8.7412 503.103 7.92291 503.656 7.49048C504.21 7.05826 505.098 6.87766 506.433 7.1712C507.761 7.46311 509.382 8.19702 511.196 9.36245C514.817 11.688 519.018 15.6082 522.907 20.5856C526.796 25.5633 529.584 30.5888 530.964 34.6642C531.656 36.7066 531.976 38.457 531.938 39.8159C531.9 41.1826 531.51 42.0006 530.957 42.4331Z" fill="white" stroke="#078C00" stroke-width="2"/>
<path d="M454.044 41.9157C453.516 42.3748 452.638 42.6006 451.282 42.3719C449.936 42.1447 448.272 41.4889 446.39 40.41C442.635 38.257 438.209 34.5342 434.038 29.7361C429.867 24.9378 426.796 20.0366 425.186 16.0182C424.38 14.0045 423.962 12.2653 423.924 10.9003C423.887 9.52634 424.232 8.68779 424.761 8.22869C425.289 7.7698 426.167 7.54453 427.522 7.77316C428.868 8.00036 430.532 8.65611 432.414 9.73507C436.17 11.8881 440.596 15.6114 444.767 20.4097C448.938 25.2079 452.008 30.1085 453.618 34.1268C454.424 36.1406 454.842 37.8797 454.88 39.2447C454.917 40.6184 454.572 41.4565 454.044 41.9157Z" fill="white" stroke="#078C00" stroke-width="2"/>
<path d="M466.882 69.4303C466.362 69.6837 465.677 69.721 464.796 69.4293C463.909 69.1356 462.891 68.5272 461.81 67.6013C459.651 65.7519 457.39 62.7667 455.588 59.0722C453.786 55.3779 452.826 51.7588 452.698 48.9189C452.634 47.4971 452.781 46.3199 453.096 45.4401C453.409 44.5663 453.86 44.0497 454.379 43.7962C454.899 43.5428 455.584 43.5055 456.465 43.7971C457.352 44.0908 458.37 44.6998 459.45 45.6255C461.609 47.4749 463.87 50.4595 465.672 54.1538C467.474 57.8483 468.434 61.4679 468.562 64.308C468.626 65.7296 468.48 66.9065 468.165 67.7863C467.853 68.6599 467.401 69.1767 466.882 69.4303Z" fill="white" stroke="#078C00" stroke-width="2"/>
<path d="M456.037 41.3386C455.476 40.9159 455.072 40.1045 455.009 38.7384C454.948 37.3804 455.237 35.6246 455.893 33.5705C457.203 29.4716 459.902 24.3982 463.704 19.3534C467.505 14.3089 471.637 10.3159 475.217 7.92758C477.01 6.73067 478.618 5.96858 479.941 5.65354C481.271 5.33666 482.163 5.50219 482.723 5.92489C483.284 6.34768 483.689 7.15868 483.751 8.5245C483.812 9.88253 483.523 11.6383 482.867 13.6924C481.557 17.7912 478.858 22.8641 475.057 27.9087C471.255 32.9535 467.123 36.9469 463.543 39.3353C461.75 40.5323 460.142 41.2943 458.819 41.6094C457.489 41.9262 456.598 41.7611 456.037 41.3386Z" fill="white" stroke="#078C00" stroke-width="2"/>
<path d="M415.662 42.0984C415.2 42.5443 414.478 42.8103 413.421 42.7797C412.36 42.7489 411.046 42.4177 409.555 41.7681C406.578 40.4707 403.081 37.9872 399.81 34.6004C396.539 31.2136 394.179 27.6316 392.987 24.6107C392.39 23.098 392.104 21.7737 392.111 20.712C392.117 19.6549 392.408 18.9424 392.87 18.4965C393.332 18.0508 394.054 17.7846 395.11 17.8153C396.172 17.8461 397.485 18.178 398.975 18.8275C401.953 20.1249 405.45 22.6084 408.721 25.9952C411.992 29.382 414.351 32.9641 415.544 35.9849C416.141 37.4975 416.427 38.8213 416.421 39.883C416.415 40.94 416.123 41.6525 415.662 42.0984Z" fill="white" stroke="#078C00" stroke-width="2"/>
</svg>
